# xmcd
#
# Track frame offsets: 
#        183
#        18665
#        44133
#        67583
#        92608
#        112423
#
# Disc length: 1757 seconds
#
# Revision: 2
# Processed by: cddbd v1.4PL0 Copyright (c) Steve Scherf et al.
# Submitted via: ExactAudioCopy v0.90a11
#
DISCID=4f06db06
DTITLE=Usha - I wan't you
DYEAR=1900
DGENRE=
TTITLE0=I want you (Station edit)
TTITLE1=I want you (Club mix)
TTITLE2=I want you (Def J club mix)
TTITLE3=I want you (Dee Jay Anthem)
TTITLE4=Rockin' the beat (Swing mix)
TTITLE5=Rockin' the beat (Straight mix)
EXTD=
EXTT0=
EXTT1=
EXTT2=
EXTT3=
EXTT4=
EXTT5=
PLAYORDER=
